# xmcd
#
# Track frame offsets: 
#        150
#        13857
#        27850
#        40740
#        53935
#        66582
#        79295
#        94237
#        109712
#        125210
#        138007
#        154087
#        170355
#        184112
#        198762
#        210875
#        223470
#        237295
#        251462
#        265167
#        278507
#        291405
#        306392
#        317452
#        333432
#
# Disc length: 4596 seconds
#
# Revision: 0
# Processed by: cddbd v1.5.2PL0 Copyright (c) Steve Scherf et al.
# Submitted via: ExactAudioCopyFreeDBPlugin 1.0
#
DISCID=7111f219
DTITLE=Various Artist - Pace Jubilee Singers Vol. 1 and Four Harmony Kings
DYEAR=1998
DGENRE=Gospel
TTITLE0=Four Harmony Kings - Ain't It a Shame
TTITLE1=Four Harmony Kings - Goodnight Angeline
TTITLE2=Four Harmony Kings - Sweet Adelyne
TTITLE3=Four Harmony Kings - Doan You Cry, Ma Honey
TTITLE4=Four Harmony Kings - My Lord's Gonna Move This Wicked Race
TTITLE5=Four Harmony Kings - When the Saints Come Marching In
TTITLE6=Pace Jubilee Singers - You Gonna Reap Just What
TTITLE7=Pace Jubilee Singers - Everybody Got to Walk
TTITLE8=Pace Jubilee Singers - My Lord, What a Morning
TTITLE9=Pace Jubilee Singers - My Lord Is Writin' All the Time
TTITLE10=Pace Jubilee Singers - I'm Going Through Jesus
TTITLE11=Pace Jubilee Singers - I Do, Don't You
TTITLE12=Pace Jubilee Singers - Is It Well with Your Soul Today?
TTITLE13=Pace Jubilee Singers - Were You There When They Crucified My 
TTITLE13=Lord
TTITLE14=Pace Jubilee Singers - Heaven's Door's Gonna Be Closed
TTITLE15=Pace Jubilee Singers - Lawdy, Won't You Come by Here
TTITLE16=Pace Jubilee Singers - My Lord Will Deliver
TTITLE17=Pace Jubilee Singers - Walk in the Light of God
TTITLE18=Pace Jubilee Singers - His Eye Is on the Sparrow
TTITLE19=Pace Jubilee Singers - I've Started and I'm Goin' All the Way
TTITLE20=Pace Jubilee Singers - Don't You Want to Meet Your Mother ove
TTITLE20=r There
TTITLE21=Pace Jubilee Singers - We Will Walk Thru the Valley of Peace
TTITLE22=Pace Jubilee Singers - Shouting On
TTITLE23=Pace Jubilee Singers - Oh Death!
TTITLE24=Pace Jubilee Singers - Certainly Lord
EXTD=
EXTT0=
EXTT1=
EXTT2=
EXTT3=
EXTT4=
EXTT5=
EXTT6=
EXTT7=
EXTT8=
EXTT9=
EXTT10=
EXTT11=
EXTT12=
EXTT13=
EXTT14=
EXTT15=
EXTT16=
EXTT17=
EXTT18=
EXTT19=
EXTT20=
EXTT21=
EXTT22=
EXTT23=
EXTT24=
PLAYORDER=
